<?xml version="1.0" standalone="no"?>
<!DOCTYPE svg PUBLIC "-//W3C//DTD SVG 20010904//EN"
 "http://www.w3.org/TR/2001/REC-SVG-20010904/DTD/svg10.dtd">
<svg version="1.0" xmlns="http://www.w3.org/2000/svg"
 width="260.000000pt" height="260.000000pt" viewBox="0 0 260.000000 260.000000"
 preserveAspectRatio="xMidYMid meet">
<metadata>
Created by potrace 1.11, written by Peter Selinger 2001-2013
</metadata>
<g transform="translate(0.000000,260.000000) scale(0.100000,-0.100000)"
fill="#000000" stroke="none">
<path d="M688 1857 c-190 -188 -413 -408 -495 -488 -81 -80 -156 -155 -166
-166 l-18 -21 234 0 233 1 274 269 274 268 106 -105 c58 -58 108 -105 111
-105 3 0 5 32 4 70 l-2 70 73 0 74 0 0 -146 0 -146 82 -79 81 -79 149 148 c82
81 154 146 160 144 6 -2 41 -34 78 -72 38 -39 71 -70 74 -70 3 0 6 16 6 35 l0
35 50 0 49 0 0 -57 c-1 -112 0 -118 31 -150 l30 -31 148 0 c81 0 150 2 154 4
6 4 -112 122 -459 462 -80 78 -149 142 -152 142 -4 0 -54 -45 -111 -100 l-103
-101 -24 23 c-24 23 -345 337 -513 503 l-85 84 -347 -342z"/>
<path d="M2255 2182 c-87 -41 -124 -129 -90 -218 54 -143 266 -142 320 1 55
142 -93 281 -230 217z"/>
<path d="M125 834 c-52 -19 -81 -48 -101 -100 -30 -80 -2 -165 69 -204 84 -48
197 -32 256 35 70 80 45 215 -49 260 -46 23 -125 27 -175 9z m135 -104 c45
-45 19 -129 -41 -132 -65 -3 -99 24 -99 77 0 48 29 75 80 75 27 0 47 -7 60
-20z"/>
<path d="M1044 841 c-7 -8 -4 -331 4 -330 4 0 59 33 122 73 l115 73 3 -74 3
-73 52 0 53 0 -1 159 c0 88 -3 162 -6 166 -4 3 -55 -27 -114 -66 -60 -39 -114
-73 -120 -75 -8 -3 -11 18 -10 70 l2 74 -50 4 c-27 1 -51 1 -53 -1z"/>
<path d="M1570 679 l0 -169 54 0 54 0 0 58 c0 101 -4 96 51 67 l49 -25 46 26
46 26 1 -44 c1 -23 0 -58 -1 -75 l-2 -33 56 0 56 0 0 169 0 170 -62 -40 c-35
-21 -82 -49 -104 -60 l-41 -22 -102 61 -101 60 0 -169z"/>
<path d="M2160 842 c-6 -2 -10 -67 -10 -168 l0 -164 54 0 54 0 -1 118 0 117
67 3 66 3 0 -121 0 -120 55 0 55 0 0 165 c0 150 -2 165 -17 166 -106 3 -315 3
-323 1z"/>
<path d="M633 763 c-134 -210 -153 -240 -153 -246 0 -4 25 -7 55 -7 l54 0 48
74 48 75 49 -75 48 -74 60 0 c33 0 58 4 56 8 -8 21 -204 321 -209 322 -4 0
-29 -35 -56 -77z"/>
</g>
</svg>
